<svg width="18" height="19" viewBox="0 0 18 19" fill="none" xmlns="http://www.w3.org/2000/svg">
<path fill-rule="evenodd" clip-rule="evenodd" d="M10.4307 12.7427C11.434 12.7427 12.2507 13.5536 12.2507 14.5502V17.1136C12.2507 17.3277 12.4223 17.4994 12.6423 17.5044H14.2307C15.4823 17.5044 16.4998 16.4994 16.4998 15.2644V7.99442C16.494 7.56942 16.2915 7.16942 15.944 6.90358L10.4498 2.52192C9.71234 1.93775 8.68067 1.93775 7.94067 2.52358L2.484 6.90192C2.12317 7.17608 1.92067 7.57608 1.9165 8.00858V15.2644C1.9165 16.4994 2.934 17.5044 4.18567 17.5044H5.789C6.01484 17.5044 6.19817 17.3252 6.19817 17.1052C6.19817 17.0569 6.204 17.0086 6.214 16.9627V14.5502C6.214 13.5594 7.02567 12.7494 8.0215 12.7427H10.4307ZM14.2307 18.7544H12.6273C11.709 18.7327 11.0007 18.0119 11.0007 17.1136V14.5503C11.0007 14.2428 10.7448 13.9928 10.4307 13.9928H8.02567C7.71817 13.9944 7.464 14.2453 7.464 14.5503V17.1053C7.464 17.1678 7.45567 17.2278 7.43817 17.2844C7.34817 18.1094 6.64317 18.7544 5.789 18.7544H4.18567C2.24484 18.7544 0.666504 17.1886 0.666504 15.2644V8.00275C0.674837 7.17442 1.0565 6.41608 1.71567 5.91692L7.1615 1.54608C8.36067 0.596083 10.0315 0.596082 11.2282 1.54442L16.7132 5.91942C17.3573 6.41025 17.739 7.16692 17.7498 7.98525V15.2644C17.7498 17.1886 16.1715 18.7544 14.2307 18.7544Z" fill="#FDC816"/>
</svg>
