<svg width="16" height="15" viewBox="0 0 16 15" fill="none" xmlns="http://www.w3.org/2000/svg">
<path fill-rule="evenodd" clip-rule="evenodd" d="M6.48533 1.25292C6.45866 1.25292 6.43199 1.25625 6.40533 1.26292C3.93033 1.87208 1.91699 4.55375 1.91699 7.24042C1.91699 10.6204 4.66699 13.3704 8.04783 13.3704C11.0953 13.3704 13.642 11.1996 14.1037 8.20792C14.107 8.18292 14.1187 8.11042 14.0503 8.02958C13.9853 7.95375 13.882 7.90875 13.7737 7.90875C12.5978 7.90875 11.7003 7.93542 10.9995 7.95542C9.30283 8.00625 8.60116 8.02542 7.90783 7.51125C6.86283 6.73708 6.77449 5.40708 6.77449 1.49542C6.77449 1.42542 6.74449 1.36708 6.68449 1.32042C6.62866 1.27625 6.55783 1.25292 6.48533 1.25292ZM8.04783 14.6204C3.97783 14.6204 0.666992 11.3096 0.666992 7.24042C0.666992 4.01375 3.10699 0.787084 6.10616 0.0487507C6.57449 -0.0654159 7.07783 0.0412507 7.45616 0.336251C7.81699 0.619584 8.02449 1.04208 8.02449 1.49542C8.02449 5.14958 8.14783 6.13292 8.65199 6.50708C8.98283 6.75125 9.43616 6.74875 10.9637 6.70625C11.6737 6.68542 12.5828 6.65875 13.7737 6.65875C14.2487 6.65875 14.6962 6.86208 14.9995 7.21625C15.2812 7.54542 15.4045 7.97542 15.3395 8.39875C14.7828 12.0029 11.7162 14.6204 8.04783 14.6204Z" fill="#818181"/>
</svg>
