<svg width="19" height="19" viewBox="0 0 19 19" fill="none" xmlns="http://www.w3.org/2000/svg">
<path fill-rule="evenodd" clip-rule="evenodd" d="M5.88665 2.08333C3.57665 2.08333 2.08331 3.66416 2.08331 6.11249V13.4708C2.08331 15.9192 3.57665 17.5 5.88665 17.5H13.6966C16.0075 17.5 17.5 15.9192 17.5 13.4708V6.11249C17.5 3.66416 16.0075 2.08333 13.6966 2.08333H5.88665ZM13.6966 18.75H5.88665C2.86415 18.75 0.833313 16.6283 0.833313 13.4708V6.11249C0.833313 2.95499 2.86415 0.833328 5.88665 0.833328H13.6966C16.7191 0.833328 18.75 2.95499 18.75 6.11249V13.4708C18.75 16.6283 16.7191 18.75 13.6966 18.75Z" fill="#818181"/>
</svg>
