<svg  width="82" height="26" viewBox="0 0 82 26" fill="none" xmlns="http://www.w3.org/2000/svg">
    <rect width="82" height="26" rx="3" fill="#FDC816"/>
    <path d="M7.84961 14.9453C7.84961 14.6602 7.94922 14.418 8.14844 14.2188C8.35156 14.0156 8.59375 13.9141 8.875 13.9141C9.16016 13.9141 9.40234 14.0156 9.60156 14.2188C9.80078 14.418 9.90039 14.6602 9.90039 14.9453C9.90039 15.2266 9.80078 15.4688 9.60156 15.6719C9.40234 15.8711 9.16016 15.9707 8.875 15.9707C8.79688 15.9707 8.71875 15.9629 8.64062 15.9473C8.56641 15.9277 8.49414 15.9004 8.42383 15.8652C8.35352 15.8301 8.28711 15.7871 8.22461 15.7363C8.1582 15.6816 8.09961 15.6211 8.04883 15.5547C7.99805 15.4844 7.95703 15.4121 7.92578 15.3379C7.875 15.2129 7.84961 15.082 7.84961 14.9453ZM8.24805 7.58008H9.52539H9.76562L9.75977 7.82031L9.61328 13.1406L9.60742 13.3691H9.37891H8.40039H8.17188L8.16602 13.1406L8.01367 7.82031L8.00781 7.58008H8.24805ZM13.4746 12.2969C13.1738 12.5781 12.9512 12.8379 12.8066 13.0762C12.6621 13.3145 12.5898 13.5254 12.5898 13.709C12.5898 13.8379 12.6055 13.9492 12.6367 14.043C12.668 14.1328 12.7207 14.209 12.7949 14.2715C12.873 14.334 12.9727 14.3809 13.0938 14.4121C13.2148 14.4395 13.3652 14.4531 13.5449 14.4531C13.9004 14.4531 14.1504 14.3945 14.2949 14.2773C14.4434 14.1562 14.5156 13.9648 14.5117 13.7031C14.5117 13.543 14.4258 13.3418 14.2539 13.0996C14.082 12.8574 13.8223 12.5898 13.4746 12.2969ZM13.1992 9.97656C14.1172 10.6445 14.8105 11.291 15.2793 11.916C15.748 12.5371 15.9824 13.1445 15.9824 13.7383C15.9824 14.5625 15.623 15.1973 14.9043 15.6426C14.5605 15.8613 14.1094 15.9727 13.5508 15.9766C13.043 15.9766 12.6055 15.8848 12.2383 15.7012C11.8672 15.5176 11.5879 15.2598 11.4004 14.9277C11.2129 14.5918 11.1191 14.1953 11.1191 13.7383C11.1191 12.9258 11.5449 12.0762 12.3965 11.1895L12.3262 11.125L12.1621 10.9844L12.291 10.8086L12.877 10.0293L13.0117 9.8418L13.1992 9.97656ZM19.2461 12.584L19.5742 13.7148C19.6523 13.9766 19.7617 14.166 19.9023 14.2832C20.043 14.3965 20.2305 14.4531 20.4648 14.4531H20.6289C20.668 14.4531 20.7051 14.459 20.7402 14.4707C20.7754 14.4785 20.8047 14.4941 20.8281 14.5176C20.8516 14.541 20.8711 14.5625 20.8867 14.582C20.9062 14.6016 20.9219 14.6309 20.9336 14.6699C20.9453 14.7051 20.9531 14.7344 20.957 14.7578C20.9648 14.7773 20.9688 14.8105 20.9688 14.8574C20.9727 14.9043 20.9746 14.9355 20.9746 14.9512C20.9785 14.9668 20.9805 14.9961 20.9805 15.0391C20.9805 15.082 20.9805 15.1055 20.9805 15.1094V15.25C20.9805 15.2539 20.9805 15.2891 20.9805 15.3555C20.9844 15.4219 20.9844 15.4707 20.9805 15.502C20.9805 15.5293 20.9766 15.5742 20.9688 15.6367C20.9648 15.6992 20.9551 15.748 20.9395 15.7832C20.9238 15.8145 20.9023 15.8496 20.875 15.8887C20.8516 15.9277 20.8184 15.957 20.7754 15.9766C20.7324 15.9922 20.6836 16 20.6289 16H20.5293C20.1543 16 19.8555 15.9531 19.6328 15.8594C19.4492 16.7344 19.002 17.4219 18.291 17.9219C17.584 18.4258 16.6348 18.7422 15.4434 18.8711L15.2383 18.8945L15.1914 18.6953L14.9395 17.6992L14.875 17.4355L15.1445 17.4062C16.2109 17.3008 16.9961 17.0371 17.5 16.6152C18.0039 16.1973 18.2539 15.6152 18.25 14.8691C18.25 14.3184 18.1035 13.7285 17.8105 13.0996L17.6992 12.8652L17.9453 12.7773L18.9414 12.4316L19.1758 12.3496L19.2461 12.584ZM25.1758 15.25C25.1758 15.2617 25.1758 15.293 25.1758 15.3438C25.1758 15.3945 25.1758 15.4355 25.1758 15.4668C25.1758 15.4941 25.1738 15.5332 25.1699 15.584C25.166 15.6348 25.1602 15.6777 25.1523 15.7129C25.1445 15.7441 25.1309 15.7812 25.1113 15.8242C25.0957 15.8633 25.0742 15.8945 25.0469 15.918C25.0234 15.9414 24.9922 15.9609 24.9531 15.9766C24.9141 15.9922 24.8711 16 24.8242 16H24.7656C24.043 16 23.502 15.7773 23.1426 15.332C22.6934 15.7773 22.0254 16 21.1387 16H20.5293C20.3379 16 20.1953 15.9277 20.1016 15.7832C20.0078 15.6348 19.9609 15.457 19.9609 15.25V15.1387C19.9609 15.0137 19.9805 14.9023 20.0195 14.8047C20.0586 14.7031 20.123 14.6191 20.2129 14.5527C20.2988 14.4863 20.4043 14.4531 20.5293 14.4531H21.1094C21.8828 14.4531 22.3047 14.2598 22.375 13.873C22.3984 13.748 22.4102 13.5996 22.4102 13.4277C22.4102 13.2363 22.4043 13.0566 22.3926 12.8887L22.3633 12.4082L22.3457 12.1855L22.5684 12.1621L23.5352 12.0449L23.7754 12.0215L23.793 12.2617L23.8867 13.6211C23.9102 13.918 23.9902 14.1309 24.127 14.2598C24.2637 14.3887 24.4805 14.4531 24.7773 14.4531H24.8242C24.8789 14.4531 24.9277 14.4629 24.9707 14.4824C25.0137 14.498 25.0469 14.5254 25.0703 14.5645C25.0938 14.6035 25.1133 14.6406 25.1289 14.6758C25.1484 14.707 25.1602 14.7539 25.1641 14.8164C25.1719 14.875 25.1758 14.918 25.1758 14.9453C25.1758 14.9727 25.1758 15.0195 25.1758 15.0859C25.1758 15.1484 25.1758 15.1836 25.1758 15.1914V15.25ZM21.4316 17.7695L22.2871 16.9141L22.375 16.8262L22.4629 16.9141L23.3184 17.7754L23.4062 17.8633L23.3184 17.9512L22.4688 18.8008L22.3809 18.8887L22.293 18.8008L21.4316 17.9453L21.3438 17.8574L21.4316 17.7695ZM27.0039 8.61719L27.8594 7.76172L27.9473 7.67383L28.0352 7.76172L28.8906 8.62305L28.9785 8.71094L28.8906 8.79883L28.041 9.64844L27.9531 9.73633L27.8652 9.64844L27.0039 8.79297L26.916 8.70508L27.0039 8.61719ZM24.7422 16C24.5508 16 24.4082 15.9277 24.3145 15.7832C24.2168 15.6387 24.168 15.4609 24.168 15.25V15.1387C24.168 14.9473 24.2188 14.7852 24.3203 14.6523C24.418 14.5195 24.5586 14.4531 24.7422 14.4531H25.0938C26.3359 14.4531 27.8809 13.9785 29.7285 13.0293C29.5293 12.9512 29.2715 12.8477 28.9551 12.7188C28.2168 12.4219 27.7246 12.2734 27.4785 12.2734C27.1113 12.2734 26.8086 12.4258 26.5703 12.7305L26.4062 12.9473L26.2891 13.0938L26.1191 13.0117L25.2168 12.5664L24.9883 12.4551L25.123 12.2324L25.2168 12.0742C25.4824 11.6367 25.8066 11.3066 26.1895 11.084C26.5723 10.8574 27.0039 10.7422 27.4844 10.7383C28.0156 10.7383 28.6426 10.9141 29.3652 11.2656C30.5566 11.8438 31.4707 12.1465 32.1074 12.1738L32.3301 12.1855V12.4141L32.3184 13.4277V13.6445L32.1074 13.6621C31.6855 13.6973 30.8848 14.0254 29.7051 14.6465C27.998 15.5488 26.4375 16 25.0234 16H24.7422ZM36.3145 13.3867C36.3145 12.1641 37.3164 11.2246 39.3203 10.5684L39.3086 10.5039L39.2676 10.2812L39.4902 10.2344L40.4453 10.0352L40.6855 9.98828L40.7207 10.2344L41.207 13.6973C41.2422 13.9668 41.3262 14.1602 41.459 14.2773C41.5918 14.3945 41.793 14.4531 42.0625 14.4531H42.1797C42.2148 14.4531 42.248 14.459 42.2793 14.4707C42.3145 14.4785 42.3418 14.4902 42.3613 14.5059C42.3848 14.5176 42.4062 14.5371 42.4258 14.5645C42.4453 14.5879 42.4609 14.6113 42.4727 14.6348C42.4844 14.6543 42.4941 14.6816 42.502 14.7168C42.5098 14.748 42.5156 14.7754 42.5195 14.7988C42.5234 14.8184 42.5254 14.8477 42.5254 14.8867C42.5293 14.9258 42.5312 14.9531 42.5312 14.9688C42.5312 14.9844 42.5312 15.0098 42.5312 15.0449C42.5312 15.0801 42.5312 15.1016 42.5312 15.1094V15.25C42.5312 15.2578 42.5312 15.2949 42.5312 15.3613C42.5352 15.4238 42.5352 15.4707 42.5312 15.502C42.5312 15.5293 42.5273 15.5742 42.5195 15.6367C42.5156 15.6992 42.5059 15.748 42.4902 15.7832C42.4746 15.8145 42.4531 15.8496 42.4258 15.8887C42.4023 15.9277 42.3691 15.957 42.3262 15.9766C42.2832 15.9922 42.2344 16 42.1797 16H42.0391C41.5352 16 41.1094 15.9023 40.7617 15.707C40.418 15.5117 40.1699 15.2207 40.0176 14.834C39.5801 15.1348 39.0977 15.2852 38.5703 15.2852C37.6094 15.2852 36.9355 14.9629 36.5488 14.3184C36.4707 14.1855 36.4121 14.041 36.373 13.8848C36.334 13.7285 36.3145 13.5625 36.3145 13.3867ZM39.5488 12.0215C39.2402 12.1387 38.9727 12.2598 38.7461 12.3848C38.5195 12.5059 38.3398 12.6211 38.207 12.7305C38.0781 12.8398 37.9824 12.9434 37.9199 13.041C37.8574 13.1387 37.8262 13.2305 37.8262 13.3164C37.8262 13.4844 37.875 13.6074 37.9727 13.6855C38.0742 13.7598 38.2598 13.7969 38.5293 13.7969C38.791 13.7969 39.0527 13.7168 39.3145 13.5566C39.4629 13.4668 39.5645 13.3535 39.6191 13.2168C39.6738 13.0762 39.6836 12.8965 39.6484 12.6777L39.5488 12.0215ZM42.0977 16C41.9062 16 41.7637 15.9277 41.6699 15.7832C41.5723 15.6387 41.5234 15.4609 41.5234 15.25V15.1387C41.5234 14.9473 41.5742 14.7852 41.6758 14.6523C41.7734 14.5195 41.9141 14.4531 42.0977 14.4531H42.4492C43.6914 14.4531 45.2363 13.9785 47.084 13.0293C46.8848 12.9512 46.627 12.8477 46.3105 12.7188C45.5723 12.4219 45.0801 12.2734 44.834 12.2734C44.4668 12.2734 44.1641 12.4258 43.9258 12.7305L43.7617 12.9473L43.6445 13.0938L43.4746 13.0117L42.5723 12.5664L42.3438 12.4551L42.4785 12.2324L42.5723 12.0742C42.8379 11.6367 43.1621 11.3066 43.5449 11.084C43.9277 10.8574 44.3594 10.7422 44.8398 10.7383C45.3711 10.7383 45.998 10.9141 46.7207 11.2656C47.9121 11.8438 48.8262 12.1465 49.4629 12.1738L49.6855 12.1855V12.4141L49.6738 13.4277V13.6445L49.4629 13.6621C49.041 13.6973 48.2402 14.0254 47.0605 14.6465C45.3535 15.5488 43.793 16 42.3789 16H42.0977ZM44.3242 17.6758L45.168 16.8438L45.25 16.7441L45.3379 16.8438L46.1758 17.6699L46.2051 17.6992L46.2285 17.6758L47.0723 16.8438L47.1602 16.7441L47.248 16.8438L48.0801 17.6699L48.168 17.7578L48.0801 17.8516L47.2422 18.6836L47.1543 18.7715L47.0664 18.6836L46.2285 17.8516L46.1992 17.8164L46.1758 17.8516L45.332 18.6836L45.2441 18.7715L45.1562 18.6836L44.3242 17.8516L44.2363 17.7637L44.3242 17.6758ZM45.2676 19.2461L46.1055 18.4141L46.1934 18.3203L46.2812 18.4141L47.1133 19.2402L47.2012 19.334L47.1133 19.4219L46.2754 20.2598L46.1875 20.3477L46.0996 20.2598L45.2676 19.4219L45.1797 19.334L45.2676 19.2461ZM56.9395 15.2441C56.9434 15.498 56.9336 15.666 56.9102 15.748C56.8516 15.916 56.7441 16 56.5879 16H56.4648C55.6445 16 55.0215 15.7617 54.5957 15.2852C54.1699 14.8047 53.957 14.1172 53.957 13.2227V7.80859V7.57422H54.1914H55.2109H55.4453V7.80859V13.2109C55.4453 13.6523 55.5273 13.9707 55.6914 14.166C55.8594 14.3574 56.123 14.4531 56.4824 14.4531H56.5879C56.6348 14.4531 56.6758 14.4609 56.7109 14.4766C56.75 14.4922 56.7832 14.5098 56.8105 14.5293C56.834 14.5488 56.8535 14.5801 56.8691 14.623C56.8887 14.6621 56.9023 14.6953 56.9102 14.7227C56.918 14.7461 56.9238 14.7852 56.9277 14.8398C56.9355 14.8906 56.9395 14.9258 56.9395 14.9453C56.9395 14.9648 56.9395 15.002 56.9395 15.0566C56.9395 15.1074 56.9395 15.1348 56.9395 15.1387V15.2441ZM59.7578 17.7695L60.6133 16.9141L60.7012 16.8262L60.7891 16.9141L61.6445 17.7754L61.7324 17.8633L61.6445 17.9512L60.7949 18.8008L60.707 18.8887L60.6191 18.8008L59.7578 17.9453L59.6699 17.8574L59.7578 17.7695ZM61.498 13.0293C61.3965 12.9902 61.2812 12.9453 61.1523 12.8945C61.0234 12.8398 60.8809 12.7812 60.7246 12.7188C59.9863 12.4219 59.4941 12.2734 59.248 12.2734C58.8809 12.2734 58.5781 12.4258 58.3398 12.7305L58.1758 12.9473L58.0586 13.0938L57.8887 13.0117L56.9863 12.5664L56.7578 12.4551L56.8926 12.2324L56.9863 12.0742C57.252 11.6367 57.5762 11.3066 57.959 11.084C58.3418 10.8574 58.7734 10.7422 59.2539 10.7383C59.7852 10.7383 60.4121 10.9141 61.1348 11.2656C62.3262 11.8438 63.2402 12.1465 63.877 12.1738L64.0996 12.1855V12.4141L64.0879 13.4277V13.6445L63.8711 13.6621C63.6133 13.6816 63.2891 13.7832 62.8984 13.9668C62.9414 14.1113 63.0723 14.2285 63.291 14.3184C63.5098 14.4082 63.8359 14.4531 64.2695 14.4531H64.5273C64.5664 14.4531 64.6035 14.459 64.6387 14.4707C64.6738 14.4785 64.7031 14.4941 64.7266 14.5176C64.75 14.541 64.7695 14.5625 64.7852 14.582C64.8047 14.6016 64.8203 14.6309 64.832 14.6699C64.8438 14.7051 64.8516 14.7344 64.8555 14.7578C64.8633 14.7812 64.8672 14.8164 64.8672 14.8633C64.8711 14.9062 64.873 14.9355 64.873 14.9512C64.877 14.9668 64.8789 14.9961 64.8789 15.0391C64.8789 15.082 64.8789 15.1055 64.8789 15.1094V15.25C64.8789 15.2539 64.8789 15.2891 64.8789 15.3555C64.8789 15.4219 64.8789 15.4688 64.8789 15.4961C64.8789 15.5234 64.875 15.5703 64.8672 15.6367C64.8633 15.6992 64.8535 15.7461 64.8379 15.7773C64.8223 15.8086 64.8008 15.8457 64.7734 15.8887C64.75 15.9277 64.7168 15.957 64.6738 15.9766C64.6309 15.9922 64.5801 16 64.5215 16H64.1758C63.7266 16 63.332 15.9492 62.9922 15.8477C62.6523 15.7422 62.3691 15.5801 62.1426 15.3613C61.9199 15.1426 61.7656 14.8691 61.6797 14.541C61.6562 14.5527 61.6328 14.5645 61.6094 14.5762C61.5859 14.5879 61.5625 14.5996 61.5391 14.6113C61.5195 14.623 61.498 14.6348 61.4746 14.6465C59.7676 15.5488 58.207 16 56.793 16H56.5117C56.3203 16 56.1777 15.9277 56.084 15.7832C55.9863 15.6387 55.9375 15.4609 55.9375 15.25V15.1387C55.9375 14.9473 55.9883 14.7852 56.0898 14.6523C56.1875 14.5195 56.3281 14.4531 56.5117 14.4531H56.8633C58.1055 14.4531 59.6504 13.9785 61.498 13.0293ZM69.0742 15.25C69.0742 15.2617 69.0742 15.293 69.0742 15.3438C69.0742 15.3945 69.0742 15.4355 69.0742 15.4668C69.0742 15.4941 69.0723 15.5332 69.0684 15.584C69.0645 15.6348 69.0586 15.6777 69.0508 15.7129C69.043 15.7441 69.0293 15.7812 69.0098 15.8242C68.9941 15.8633 68.9727 15.8945 68.9453 15.918C68.9219 15.9414 68.8906 15.9609 68.8516 15.9766C68.8125 15.9922 68.7695 16 68.7227 16H68.6641C67.9414 16 67.4004 15.7773 67.041 15.332C66.5918 15.7773 65.9238 16 65.0371 16H64.4277C64.2363 16 64.0938 15.9277 64 15.7832C63.9062 15.6348 63.8594 15.457 63.8594 15.25V15.1387C63.8594 15.0137 63.8789 14.9023 63.918 14.8047C63.957 14.7031 64.0215 14.6191 64.1113 14.5527C64.1973 14.4863 64.3027 14.4531 64.4277 14.4531H65.0078C65.7812 14.4531 66.2031 14.2598 66.2734 13.873C66.2969 13.748 66.3086 13.5996 66.3086 13.4277C66.3086 13.2363 66.3027 13.0566 66.291 12.8887L66.2617 12.4082L66.2441 12.1855L66.4668 12.1621L67.4336 12.0449L67.6738 12.0215L67.6914 12.2617L67.7852 13.6211C67.8086 13.918 67.8887 14.1309 68.0254 14.2598C68.1621 14.3887 68.3789 14.4531 68.6758 14.4531H68.7227C68.7773 14.4531 68.8262 14.4629 68.8691 14.4824C68.9121 14.498 68.9453 14.5254 68.9688 14.5645C68.9922 14.6035 69.0117 14.6406 69.0273 14.6758C69.0469 14.707 69.0586 14.7539 69.0625 14.8164C69.0703 14.875 69.0742 14.918 69.0742 14.9453C69.0742 14.9727 69.0742 15.0195 69.0742 15.0859C69.0742 15.1484 69.0742 15.1836 69.0742 15.1914V15.25ZM65.6992 9.93555L66.5547 9.08008L66.6426 8.99219L66.7305 9.08008L67.5859 9.94141L67.6738 10.0293L67.5859 10.1172L66.7363 10.9668L66.6484 11.0547L66.5605 10.9668L65.6992 10.1113L65.6113 10.0234L65.6992 9.93555ZM69.0859 16H68.6406C68.4492 16 68.3066 15.9277 68.2129 15.7832C68.1152 15.6387 68.0664 15.4609 68.0664 15.25V15.1387C68.0664 14.9473 68.1172 14.7852 68.2188 14.6523C68.3164 14.5195 68.457 14.4531 68.6406 14.4531H69.0859C69.668 14.4531 70.0527 14.4004 70.2402 14.2949C70.4941 14.1465 70.6211 13.8066 70.6211 13.2754C70.6211 12.8301 70.5527 12.332 70.416 11.7812L70.3574 11.5527L70.5859 11.5L71.541 11.2598L71.752 11.2012L71.8223 11.4121C72.0176 12.0449 72.1152 12.6602 72.1152 13.2578C72.1113 14.293 71.8066 15.041 71.2012 15.502C71.084 15.5879 70.9512 15.6641 70.8027 15.7305C70.6582 15.793 70.4961 15.8438 70.3164 15.8828C70.1406 15.9219 69.9512 15.9512 69.748 15.9707C69.5449 15.9902 69.3242 16 69.0859 16ZM68.4648 17.7695L69.3145 16.9141L69.4023 16.8262L69.4902 16.9141L70.3516 17.7754L70.3574 17.7812L70.3691 17.7695L71.2246 16.9141L71.3125 16.8262L71.4004 16.9141L72.2559 17.7754L72.3438 17.8633L72.2559 17.9512L71.4062 18.8008L71.3184 18.8887L71.2305 18.8008L70.3691 17.9453L70.3633 17.9395L70.3516 17.9512L69.4961 18.8008L69.4082 18.8887L69.3262 18.8008L68.4648 17.9453L68.377 17.8574L68.4648 17.7695ZM73.6152 7.57422H74.6289H74.8633V7.80859V15.7598V15.9941H74.6289H73.6152H73.3809V15.7598V7.80859V7.57422H73.6152Z" fill="white"/>
</svg>