<svg width="31" height="31" viewBox="0 0 31 31" fill="none" xmlns="http://www.w3.org/2000/svg">
    <rect width="31" height="31" rx="8" fill="#FDC816" fill-opacity="0.13"/>
    <mask id="mask0_2_762" maskUnits="userSpaceOnUse" x="7" y="9" width="17" height="5">
    <path fill-rule="evenodd" clip-rule="evenodd" d="M7 13.0183L7 9L23.1819 9L23.1819 13.0183L7 13.0183Z" fill="white"/>
    </mask>
    <g mask="url(#mask0_2_762)">
    <path fill-rule="evenodd" clip-rule="evenodd" d="M23.1819 12.1323C23.1819 12.3072 23.1299 12.4833 23.0223 12.6381C22.7434 13.0399 22.1915 13.1392 21.7885 12.8591C17.723 10.031 12.4651 10.031 8.39256 12.8591C7.99074 13.1392 7.43883 13.0399 7.15874 12.6369C6.87865 12.2351 6.9791 11.6844 7.38211 11.4043C11.9959 8.19802 18.1922 8.19802 22.8025 11.4043C23.0495 11.5768 23.1819 11.8522 23.1819 12.1323Z" fill="#FDC816"/>
    </g>
    <path fill-rule="evenodd" clip-rule="evenodd" d="M20.3348 15.0902C20.3348 15.2403 20.2969 15.3916 20.2166 15.531C19.9731 15.9553 19.4307 16.1018 19.0076 15.8584C16.5955 14.4745 13.596 14.4745 11.1768 15.8584C10.7514 16.1018 10.2101 15.9541 9.96666 15.5298C9.72793 15.1044 9.87093 14.5643 10.2952 14.3208C13.2592 12.6249 16.9347 12.6249 19.8892 14.3208C20.1752 14.4851 20.3348 14.7829 20.3348 15.0902Z" fill="#FDC816"/>
    <path fill-rule="evenodd" clip-rule="evenodd" d="M18.6939 17.8636C18.6939 17.9848 18.6683 18.1069 18.6139 18.2196C18.4492 18.5622 18.0823 18.6805 17.7961 18.4839C16.1646 17.3664 14.1358 17.3664 12.4995 18.4839C12.2117 18.6805 11.8456 18.5612 11.6809 18.2186C11.5194 17.875 11.6161 17.4389 11.9031 17.2423C13.908 15.8729 16.394 15.8729 18.3925 17.2423C18.5859 17.375 18.6939 17.6155 18.6939 17.8636Z" fill="#FDC816"/>
    <circle cx="15.2727" cy="20.8182" r="1.18182" fill="#FDC816"/>
</svg>