<svg width="31" height="31" viewBox="0 0 31 31" fill="none" xmlns="http://www.w3.org/2000/svg">
    <rect width="31" height="31" rx="8" fill="#FDC816" fill-opacity="0.13"/>
    <path fill-rule="evenodd" clip-rule="evenodd" d="M14.8327 16.0986C14.3309 16.0986 13.8307 15.9329 13.4122 15.6014L10.0484 12.8893C9.80617 12.6943 9.76867 12.3396 9.96292 12.0981C10.1587 11.8573 10.5127 11.8191 10.7542 12.0133L14.1149 14.7224C14.5372 15.0569 15.1319 15.0569 15.5572 14.7194L18.8842 12.0148C19.1257 11.8176 19.4797 11.8551 19.6762 12.0966C19.8719 12.3373 19.8352 12.6913 19.5944 12.8878L16.2614 15.5969C15.8399 15.9314 15.3359 16.0986 14.8327 16.0986Z" fill="#FDC816"/>
    <mask id="mask0_2_761"  maskUnits="userSpaceOnUse" x="6" y="7" width="17" height="16">
    <path fill-rule="evenodd" clip-rule="evenodd" d="M6.75 7.5H22.8749V22.125H6.75V7.5Z" fill="white"/>
    </mask>
    <g mask="url(#mask0_2_761)">
    <path fill-rule="evenodd" clip-rule="evenodd" d="M11.1292 21H18.4942C18.4957 20.9985 18.5017 21 18.5062 21C19.3619 21 20.1209 20.694 20.7029 20.1128C21.3787 19.44 21.7499 18.4732 21.7499 17.391V12.24C21.7499 10.1453 20.3804 8.625 18.4942 8.625H11.1307C9.24444 8.625 7.87494 10.1453 7.87494 12.24V17.391C7.87494 18.4732 8.24694 19.44 8.92194 20.1128C9.50394 20.694 10.2637 21 11.1187 21H11.1292ZM11.1164 22.125C9.95919 22.125 8.92569 21.705 8.12769 20.91C7.23894 20.0235 6.74994 18.774 6.74994 17.391V12.24C6.74994 9.53775 8.63319 7.5 11.1307 7.5H18.4942C20.9917 7.5 22.8749 9.53775 22.8749 12.24V17.391C22.8749 18.774 22.3859 20.0235 21.4972 20.91C20.6999 21.7042 19.6657 22.125 18.5062 22.125H18.4942H11.1307H11.1164Z" fill="#FDC816"/>
    </g>
</svg>